Coordinates
version=1
nRows=8
nColumns=46
inDegrees=yes

Units are S.I. units (second, meters, Newtons, ...)
Angles are in degrees.

endheader
time	pelvis_tilt	pelvis_list	pelvis_rotation	pelvis_tx	pelvis_ty	pelvis_tz	bb_angle	bb_tx	bb_ty	bb_tz	hip_flexion_r	hip_adduction_r	hip_rotation_r	knee_angle_r	knee_angle_r_beta	ankle_angle_r	subtalar_angle_r	mtp_angle_r	crank_angle_r	hip_flexion_l	hip_adduction_l	hip_rotation_l	knee_angle_l	knee_angle_l_beta	ankle_angle_l	subtalar_angle_l	mtp_angle_l	crank_angle_l	lumbar_extension	lumbar_bending	lumbar_rotation	arm_flex_r	arm_add_r	arm_rot_r	elbow_flex_r	pro_sup_r	wrist_flex_r	wrist_dev_r	arm_flex_l	arm_add_l	arm_rot_l	elbow_flex_l	pro_sup_l	wrist_flex_l	wrist_dev_l
      7.50500000	    -18.15019549	      7.94400106	      5.39809224	      0.15280018	      1.14879963	     -0.20684716	      0.00000000	      0.50000000	      0.00000000	      0.25000000	     53.37507223	    -11.12084376	      7.00534527	     70.94639232	      1.23824814	     -8.75093196	    -13.32808378	      0.00000000	      0.00000000	     69.21883629	      4.79932053	      0.77786108	     60.92237200	      1.06329598	      9.42311443	     -6.46769010	      0.00000000	      0.00000000	    -60.44896669	     -4.12917545	     -6.01489468	     89.49365786	    -16.08681948	     32.65863468	     43.87794150	     31.62700099	      0.00000000	      0.00000000	     89.75619068	     -3.15505080	     25.39182012	     50.57168152	     24.73636233	      0.00000000	      0.00000000
      7.51000000	    -17.96239364	      7.62351919	      5.24724681	      0.15393836	      1.14747697	     -0.20806824	      0.00000000	      0.50000000	      0.00000000	      0.25000000	     54.48053325	    -10.91876263	      7.10195606	     73.76498638	      1.28744188	     -7.78610427	    -12.30989314	      0.00000000	      0.00000000	     67.76329037	      4.70939346	      1.04188040	     58.60135898	      1.02278666	      8.16551451	     -6.92468158	      0.00000000	      0.00000000	    -60.62612868	     -3.85630113	     -5.49114919	     89.45755994	    -16.72156396	     32.75955034	     44.81485047	     31.89884000	      0.00000000	      0.00000000	     89.75115337	     -3.14587725	     25.75898519	     50.70588927	     24.72222527	      0.00000000	      0.00000000
      7.51500000	    -17.83882387	      7.03157731	      5.00276547	      0.15515150	      1.14597270	     -0.20914704	      0.00000000	      0.50000000	      0.00000000	      0.25000000	     55.62652618	    -10.40084604	      7.05677717	     76.44354345	      1.33419153	     -7.15653449	    -11.79035069	      0.00000000	      0.00000000	     66.42541631	      4.32414146	      1.41912784	     56.42775574	      0.98485013	      7.02722341	     -6.94532259	      0.00000000	      0.00000000	    -60.65715464	     -3.55501787	     -4.66637324	     89.43477844	    -17.57616626	     33.44147707	     45.55352604	     32.31953017	      0.00000000	      0.00000000	     89.74297184	     -3.06738480	     26.05530046	     50.72806861	     24.67449162	      0.00000000	      0.00000000
      7.52000000	    -17.67033787	      6.27541719	      4.64144288	      0.15636204	      1.14443799	     -0.21001822	      0.00000000	      0.50000000	      0.00000000	      0.25000000	     56.69030832	     -9.59568475	      6.95525016	     78.97763506	      1.37841977	     -6.75424708	    -11.71352688	      0.00000000	      0.00000000	     65.07417044	      3.68199048	      1.81559586	     54.37172212	      0.94896557	      6.00750626	     -6.62287966	      0.00000000	      0.00000000	    -60.63725102	     -3.17324556	     -3.92725829	     89.43959210	    -17.54604534	     33.49798916	     45.65898483	     32.36100392	      0.00000000	      0.00000000	     89.72898538	     -3.26140860	     26.04551910	     50.67094725	     24.66477216	      0.00000000	      0.00000000
      7.52500000	    -17.47140081	      5.53625344	      4.19421516	      0.15759798	      1.14290402	     -0.21113357	      0.00000000	      0.50000000	      0.00000000	      0.25000000	     57.81755079	     -8.82887690	      6.88394896	     81.51766599	      1.42275167	     -6.40097266	    -11.42990005	      0.00000000	      0.00000000	     63.67200358	      3.00045944	      2.18275702	     52.32695297	      0.91327762	      4.85837792	     -6.37127269	      0.00000000	      0.00000000	    -60.66329200	     -2.78889935	     -3.07220996	     89.43653991	    -17.52329962	     33.59156319	     45.82767873	     32.41485725	      0.00000000	      0.00000000	     89.70922310	     -3.48507353	     26.09473411	     50.55676472	     24.65211786	      0.00000000	      0.00000000
      7.53000000	    -17.32504255	      4.99112526	      3.81275924	      0.15897196	      1.14147462	     -0.21255513	      0.00000000	      0.50000000	      0.00000000	      0.25000000	     59.04947286	     -8.36613479	      6.90543818	     84.02646103	      1.46653840	     -5.62596792	    -10.14340991	      0.00000000	      0.00000000	     62.18335080	      2.57991566	      2.51723697	     50.08569129	      0.87416022	      3.14179894	     -7.20606496	      0.00000000	      0.00000000	    -60.64250513	     -2.55673272	     -2.26034943	     89.39916426	    -18.19092689	     34.03030042	     46.51535238	     32.66073189	      0.00000000	      0.00000000	     89.70605102	     -3.55869987	     26.97435661	     50.09314865	     24.65474542	      0.00000000	      0.00000000
      7.53500000	    -17.09818907	      4.16426987	      3.28033268	      0.16055720	      1.14011105	     -0.21377883	      0.00000000	      0.50000000	      0.00000000	      0.25000000	     60.14695420	     -7.51716236	      6.71251912	     86.36914211	      1.50742590	     -5.46360401	     -9.98688005	      0.00000000	      0.00000000	     60.77334319	      1.65854453	      2.70630539	     48.24239546	      0.84198864	      2.09188949	     -6.68415422	      0.00000000	      0.00000000	    -60.65681916	     -2.14139059	     -1.37896009	     89.40440677	    -18.07351807	     34.24383457	     46.66990611	     32.72297951	      0.00000000	      0.00000000	     89.68470592	     -3.86215036	     27.00638061	     49.94513796	     24.64147793	      0.00000000	      0.00000000
      7.54000000	    -16.83739479	      3.17805862	      2.44831514	      0.16241401	      1.13842930	     -0.21460871	      0.00000000	      0.50000000	      0.00000000	      0.25000000	     61.23352217	     -6.28508409	      6.52568431	     88.65571841	      1.54733419	     -5.14090971	     -9.48956914	      0.00000000	      0.00000000	     59.61493231	      0.20531831	      2.48657965	     47.01377288	      0.82054513	      1.12268457	     -5.96385633	      0.00000000	      0.00000000	    -60.57601479	     -1.94579815	      0.02484668	     89.39900684	    -19.03500113	     35.94816712	     47.34093354	     33.20794278	      0.00000000	      0.00000000	     89.68596075	     -4.20279390	     28.58791117	     49.17323447	     24.78078984	      0.00000000	      0.00000000
